<?xml version="1.0" encoding="UTF-8" standalone="no"?>
<svg
   version="1.0"
   width="90.221184"
   height="21.88055"
   id="svg6180"
   inkscape:version="1.4.4 (dcaf3e7d9e, 2026-05-05)"
   sodipodi:docname="fedora_whitelogo.svg"
   xmlns:inkscape="http://www.inkscape.org/namespaces/inkscape"
   xmlns:sodipodi="http://sodipodi.sourceforge.net/DTD/sodipodi-0.dtd"
   xmlns="http://www.w3.org/2000/svg"
   xmlns:svg="http://www.w3.org/2000/svg"
   xmlns:rdf="http://www.w3.org/1999/02/22-rdf-syntax-ns#"
   xmlns:cc="http://creativecommons.org/ns#"
   xmlns:dc="http://purl.org/dc/elements/1.1/">
  <metadata
     id="metadata3409">
    <rdf:RDF>
      <cc:Work
         rdf:about="">
        <dc:format>image/svg+xml</dc:format>
        <dc:type
           rdf:resource="http://purl.org/dc/dcmitype/StillImage" />
        <dc:title />
      </cc:Work>
    </rdf:RDF>
  </metadata>
  <sodipodi:namedview
     pagecolor="#ffffff"
     bordercolor="#666666"
     borderopacity="1"
     objecttolerance="10"
     gridtolerance="10"
     guidetolerance="10"
     inkscape:pageopacity="0"
     inkscape:pageshadow="2"
     inkscape:window-width="1192"
     inkscape:window-height="1835"
     id="namedview3407"
     showgrid="false"
     fit-margin-top="0"
     fit-margin-left="0"
     fit-margin-right="0"
     fit-margin-bottom="0"
     inkscape:zoom="5.3431818"
     inkscape:cx="46.414292"
     inkscape:cy="25.73373"
     inkscape:window-x="24"
     inkscape:window-y="21"
     inkscape:window-maximized="0"
     inkscape:current-layer="svg6180"
     inkscape:document-rotation="0"
     inkscape:showpageshadow="2"
     inkscape:pagecheckerboard="0"
     inkscape:deskcolor="#d1d1d1" />
  <defs
     id="defs6182" />
  <g
     id="g3608"
     transform="matrix(0.47785099,0,0,0.47785099,-11.956056,-50.884703)"
     style="fill:#ffffff;stroke-width:7.90943">
    <path
       id="path244"
       style="fill:#ffffff;fill-opacity:1;fill-rule:nonzero;stroke:none;stroke-width:1.56169"
       d="M 12.617188,0 C 5.6519153,0 0.0045413,5.6437286 0,12.607422 v 9.763672 c 0.00313425,1.580948 1.2874074,2.861328 2.8691406,2.861328 h 0.013672 9.7382814 C 19.587156,25.228504 25.232422,19.582661 25.232422,12.617188 25.232422,5.6487592 19.585619,0 12.617188,0 Z m 2.55664,5.1914062 c 2.118587,0 4.119141,1.6238841 4.119141,3.8613282 0,0.2075151 -0.0012,0.4150366 -0.03516,0.6503906 -0.05864,0.5953 -0.601024,1.021414 -1.193359,0.9375 -0.592335,-0.0849 -0.9963,-0.6459928 -0.886719,-1.234375 0.01008,-0.067134 0.01563,-0.172261 0.01563,-0.3535156 0,-1.2685811 -1.037833,-1.7597656 -2.019531,-1.7597656 -0.981104,0 -1.86679,0.8244895 -1.86914,1.7578124 0.01698,1.0796308 0,2.1530148 0,3.2304688 l 1.822265,-0.01172 c 1.421606,-0.02942 1.43508,2.112421 0.01367,2.101563 l -1.835937,0.01172 c -0.0047,0.868366 0.0079,0.711099 0.0039,1.148438 0,0 0.01421,1.060057 -0.01758,1.865234 -0.219757,2.364801 -2.231688,4.25586 -4.650391,4.25586 -2.563628,0 -4.6796875,-2.096067 -4.6796875,-4.666016 0.077003,-2.643788 2.1889025,-4.723901 4.84375,-4.699219 l 1.4785155,-0.0098 v 2.101562 l -1.4785155,0.01172 H 8.7929688 C 7.333849,14.433671 6.086393,15.423749 6.0625,16.986328 c 0,1.423777 1.1503992,2.5625 2.578125,2.5625 1.425357,0 2.564453,-1.036469 2.564453,-2.560547 0.0162,-2.527496 -0.01044,-5.31813 -0.002,-7.9433591 7.89e-4,-0.1474944 0.0092,-0.2669921 0.02539,-0.4296875 0.240685,-1.9436476 1.977772,-3.4238282 3.945312,-3.4238282 z"
       transform="matrix(1.7867128,0,0,1.7867128,26.316795,106.87821)" />
    <g
       id="g3595"
       style="fill:#ffffff;stroke-width:7.90943">
      <g
         style="fill:#ffffff;fill-opacity:1;stroke-width:4.47269"
         transform="matrix(1.7992734,0,0,1.7380239,67.446745,-121.99926)"
         id="g1019" />
      <g
         style="fill:#ffffff;fill-opacity:1;stroke-width:4.58788"
         transform="matrix(1.7361841,0,0,1.7118711,84.821887,-122.89238)"
         id="g3585" />
    </g>
  </g>
  <text
     xml:space="preserve"
     style="font-style:normal;font-variant:normal;font-weight:normal;font-stretch:normal;font-size:10.6667px;font-family:sans-serif;-inkscape-font-specification:'sans-serif, Normal';font-variant-ligatures:normal;font-variant-caps:normal;font-variant-numeric:normal;font-variant-east-asian:normal;writing-mode:lr-tb;direction:ltr;fill:#ffffff"
     x="27.511696"
     y="17.966824"
     id="text1"><tspan
       sodipodi:role="line"
       id="tspan1"
       x="27.511696"
       y="17.966824">hurunagus</tspan></text>
</svg>
