<?xml version="1.0" encoding="UTF-8" standalone="no"?>
<svg
   version="1.1"
   width="280"
   height="80"
   id="svg2855"
   inkscape:version="1.4.4 (dcaf3e7d9e, 2026-05-05)"
   sodipodi:docname="fedora_darkbackground.svg"
   xmlns:inkscape="http://www.inkscape.org/namespaces/inkscape"
   xmlns:sodipodi="http://sodipodi.sourceforge.net/DTD/sodipodi-0.dtd"
   xmlns="http://www.w3.org/2000/svg"
   xmlns:svg="http://www.w3.org/2000/svg"
   xmlns:rdf="http://www.w3.org/1999/02/22-rdf-syntax-ns#"
   xmlns:cc="http://creativecommons.org/ns#"
   xmlns:dc="http://purl.org/dc/elements/1.1/">
  <metadata
     id="metadata14">
    <rdf:RDF>
      <cc:Work
         rdf:about="">
        <dc:format>image/svg+xml</dc:format>
        <dc:type
           rdf:resource="http://purl.org/dc/dcmitype/StillImage" />
      </cc:Work>
    </rdf:RDF>
  </metadata>
  <sodipodi:namedview
     pagecolor="#ffffff"
     bordercolor="#666666"
     borderopacity="1"
     objecttolerance="10"
     gridtolerance="10"
     guidetolerance="10"
     inkscape:pageopacity="0"
     inkscape:pageshadow="2"
     inkscape:window-width="1920"
     inkscape:window-height="995"
     id="namedview12"
     showgrid="false"
     fit-margin-top="0"
     fit-margin-left="0"
     fit-margin-right="0"
     fit-margin-bottom="0"
     inkscape:zoom="1.25"
     inkscape:cx="121.2"
     inkscape:cy="64.4"
     inkscape:window-x="0"
     inkscape:window-y="0"
     inkscape:window-maximized="1"
     inkscape:current-layer="svg2855"
     inkscape:document-rotation="0"
     inkscape:snap-global="false"
     inkscape:pagecheckerboard="0"
     inkscape:showpageshadow="2"
     inkscape:deskcolor="#d1d1d1" />
  <defs
     id="defs2857" />
  <path
     id="path1616"
     style="opacity:1;fill:#ffffff;fill-opacity:1;fill-rule:nonzero;stroke:none;stroke-width:1.33335"
     d="M 40.20037,1.6 C 18.11761,1.6 0.2234,19.49633 0.209,41.57411 H 0.2 V 72.52988 H 0.209 C 0.2201,77.5421 4.28163,81.6 9.29637,81.6 h 0.0431 0.009 30.86949 C 62.30349,81.5859 80.19232,63.69201 80.19232,41.60863 80.19234,19.51588 62.29375,1.6 40.20097,1.6 Z m 8.10356,16.46602 c 6.7168,0 13.05717,5.14368 13.05717,12.23733 0,0.65789 0.004,1.31643 -0.10356,2.06256 -0.18596,1.88737 -1.91063,3.24341 -3.78856,2.97735 -1.87795,-0.26922 -3.1522,-2.05263 -2.80475,-3.91801 0.0322,-0.21293 0.0433,-0.54728 0.0433,-1.1219 0,-4.02194 -3.29106,-5.57498 -6.40344,-5.57498 -3.11051,0 -5.91274,2.61593 -5.92017,5.57498 0.0537,3.42283 0,6.81919 0,10.23517 l 5.77345,-0.0433 c 4.50705,-0.0934 4.55814,6.69684 0.0518,6.66235 l -5.82524,0.0433 c -0.0141,2.75308 0.023,2.25528 0.009,3.64186 0,0 0.0489,3.36739 -0.0518,5.92017 -0.69672,7.49738 -7.08035,13.48867 -14.74865,13.48867 -8.12774,0 -14.82633,-6.64405 -14.82631,-14.7918 0.24416,-8.38194 6.92715,-14.97362 15.34412,-14.89536 l 4.69472,-0.0347 v 6.65372 l -4.69472,0.0433 h -0.0258 c -4.626,0.13671 -8.58875,3.279 -8.6645,8.23301 0,4.51393 3.64614,8.12945 8.1726,8.12944 4.51896,0 8.13807,-3.28889 8.13807,-8.12081 l -0.009,-25.19115 c 0.002,-0.46765 0.0177,-0.83911 0.0691,-1.35491 0.76308,-6.16219 6.2756,-10.85653 12.5135,-10.85653 z m 212.59979,50.06257 c 4.89234,0 -4.89234,0 0,0 z"
     sodipodi:nodetypes="sccccscccssscscccsscccccccscccccccscccccss" />
  <text
     xml:space="preserve"
     style="font-style:normal;font-variant:normal;font-weight:normal;font-stretch:normal;font-size:37.3333px;font-family:sans-serif;-inkscape-font-specification:'sans-serif, Normal';font-variant-ligatures:normal;font-variant-caps:normal;font-variant-numeric:normal;font-variant-east-asian:normal;writing-mode:lr-tb;direction:ltr;fill:#ffffff"
     x="80.800018"
     y="67.199997"
     id="text1"><tspan
       sodipodi:role="line"
       id="tspan1"
       x="80.800018"
       y="67.199997">hurunagus</tspan></text>
</svg>
