<?xml version="1.0" encoding="UTF-8" standalone="no"?>
<svg
   version="1.1"
   width="280"
   height="80"
   id="svg2855"
   inkscape:version="1.4.4 (dcaf3e7d9e, 2026-05-05)"
   sodipodi:docname="fedora_lightbackground.svg"
   xmlns:inkscape="http://www.inkscape.org/namespaces/inkscape"
   xmlns:sodipodi="http://sodipodi.sourceforge.net/DTD/sodipodi-0.dtd"
   xmlns="http://www.w3.org/2000/svg"
   xmlns:svg="http://www.w3.org/2000/svg"
   xmlns:rdf="http://www.w3.org/1999/02/22-rdf-syntax-ns#"
   xmlns:cc="http://creativecommons.org/ns#"
   xmlns:dc="http://purl.org/dc/elements/1.1/">
  <metadata
     id="metadata14">
    <rdf:RDF>
      <cc:Work
         rdf:about="">
        <dc:format>image/svg+xml</dc:format>
        <dc:type
           rdf:resource="http://purl.org/dc/dcmitype/StillImage" />
        <dc:title />
      </cc:Work>
    </rdf:RDF>
  </metadata>
  <sodipodi:namedview
     pagecolor="#ffffff"
     bordercolor="#666666"
     borderopacity="1"
     objecttolerance="10"
     gridtolerance="10"
     guidetolerance="10"
     inkscape:pageopacity="0"
     inkscape:pageshadow="2"
     inkscape:window-width="1920"
     inkscape:window-height="995"
     id="namedview12"
     showgrid="false"
     fit-margin-top="0"
     fit-margin-left="0"
     fit-margin-right="0"
     fit-margin-bottom="0"
     inkscape:zoom="1.25"
     inkscape:cx="121.2"
     inkscape:cy="64.4"
     inkscape:window-x="0"
     inkscape:window-y="0"
     inkscape:window-maximized="1"
     inkscape:current-layer="svg2855"
     inkscape:document-rotation="0"
     inkscape:snap-global="false"
     inkscape:showpageshadow="2"
     inkscape:pagecheckerboard="0"
     inkscape:deskcolor="#d1d1d1" />
  <defs
     id="defs2857" />
  <path
     id="path1616"
     style="opacity:0.5;fill:#51a2da;fill-opacity:1;fill-rule:nonzero;stroke:none;stroke-width:1.32952"
     d="M 42.37097,0 C 20.414853,0 2.6232658,17.896326 2.6089484,39.974114 H 2.6 v 30.955768 h 0.00895 c 0.011036,5.012215 4.0492736,9.070119 9.035255,9.070119 h 0.04285 0.0089 30.692455 C 64.347329,79.985911 82.133567,62.092012 82.133567,40.008629 82.133587,17.915879 64.337645,0 42.371566,0 Z m 8.057086,16.466022 c 6.678279,0 12.982288,5.143681 12.982288,12.237326 0,0.657887 0.004,1.316436 -0.102967,2.062566 -0.184893,1.887363 -1.899672,3.243405 -3.766832,2.977346 -1.86718,-0.269221 -3.134123,-2.052625 -2.788665,-3.918014 0.03202,-0.212931 0.04305,-0.547278 0.04305,-1.121898 0,-4.021933 -3.272186,-5.574974 -6.366717,-5.574974 -3.092671,0 -5.878831,2.615921 -5.886218,5.574974 0.05339,3.422833 0,6.819196 0,10.235167 l 5.740339,-0.0433 c 4.481203,-0.09342 4.532,6.696844 0.0515,6.662354 l -5.791832,0.04329 c -0.01402,2.753081 0.02287,2.25528 0.0089,3.641858 0,0 0.04862,3.367391 -0.0515,5.920176 -0.692724,7.497376 -7.039744,13.48867 -14.664067,13.48867 -8.081127,0 -14.741301,-6.644049 -14.741281,-14.791799 0.242759,-8.381942 6.887423,-14.973623 15.256122,-14.895367 l 4.667796,-0.03466 v 6.653723 l -4.667796,0.0433 h -0.02565 c -4.59947,0.13671 -8.539494,3.278999 -8.61481,8.233006 0,4.513937 3.62523,8.12945 8.125731,8.129446 4.493044,0 8.091398,-3.288892 8.091398,-8.120815 l -0.0089,-25.19115 c 0.002,-0.467644 0.0176,-0.839105 0.0687,-1.354909 0.758704,-6.162184 6.23961,-10.856527 12.441736,-10.856524 z"
     sodipodi:nodetypes="sccccsccccsscscccsscccccccscccccccsccccc" />
  <text
     xml:space="preserve"
     style="font-style:normal;font-variant:normal;font-weight:normal;font-stretch:normal;font-size:37.3333px;font-family:sans-serif;-inkscape-font-specification:'sans-serif, Normal';font-variant-ligatures:normal;font-variant-caps:normal;font-variant-numeric:normal;font-variant-east-asian:normal;writing-mode:lr-tb;direction:ltr;fill:#52a1d9;fill-opacity:0.501961"
     x="80"
     y="72"
     id="text1"><tspan
       sodipodi:role="line"
       id="tspan1"
       x="80"
       y="72">hurunagus</tspan></text>
</svg>
